# xmcd
#
# Track frame offsets: 
#        150
#        17977
#        33422
#        58838
#        78690
#        97158
#        112243
#        130626
#        154775
#        174925
#        188513
#
# Disc length: 2685 seconds
#
# Revision: 0
# Processed by: cddbd v1.5.2PL0 Copyright (c) Steve Scherf et al.
# Submitted via: ExactAudioCopy v1.2
#
DISCID=900a7b0b
DTITLE=Bob Lanza Blues Band - Time to Let Go
DYEAR=2016
DGENRE=Blues
TTITLE0=Mind Your Own Business
TTITLE1=Time to Let Go
TTITLE2=When the Sun Comes Up
TTITLE3=Your Turn to Cry
TTITLE4=Rush'n' the Blues
TTITLE5=Follow Your Heart
TTITLE6=Go No Further
TTITLE7=Love Me or Leave Me
TTITLE8=You're Not in Texas
TTITLE9=Johnny Smith
TTITLE10=Walkin' Thru the Park
EXTD=
EXTT0=
EXTT1=
EXTT2=
EXTT3=
EXTT4=
EXTT5=
EXTT6=
EXTT7=
EXTT8=
EXTT9=
EXTT10=
PLAYORDER=
